<mxfile host="app.diagrams.net" modified="2023-07-04T07:16:33.939Z" agent="Mozilla/5.0 (Windows NT 10.0; Win64; x64) AppleWebKit/537.36 (KHTML, like Gecko) Chrome/114.0.0.0 Safari/537.36" etag="XBEPfqf8Rd_Z1D6tClnS" version="21.5.2" type="device">
  <diagram id="prtHgNgQTEPvFCAcTncT" name="Page-1">
    <mxGraphModel dx="1434" dy="699" grid="1" gridSize="10" guides="1" tooltips="1" connect="1" arrows="1" fold="1" page="1" pageScale="1" pageWidth="827" pageHeight="1169" math="0" shadow="0">
      <root>
        <mxCell id="0" />
        <mxCell id="1" parent="0" />
        <mxCell id="dNxyNK7c78bLwvsdeMH5-11" value="하드웨어 설계도" style="swimlane;html=1;startSize=20;horizontal=1;containerType=tree;glass=0;" parent="1" vertex="1">
          <mxGeometry x="70" y="70" width="930" height="450" as="geometry">
            <mxRectangle x="70" y="70" width="60" height="30" as="alternateBounds" />
          </mxGeometry>
        </mxCell>
        <mxCell id="tdhTE_SbrOpJKmSrQMQf-3" value="Arduino Due" style="rounded=0;whiteSpace=wrap;html=1;fillColor=#f8cecc;strokeColor=#b85450;" vertex="1" parent="dNxyNK7c78bLwvsdeMH5-11">
          <mxGeometry x="610" y="160" width="120" height="60" as="geometry" />
        </mxCell>
        <mxCell id="tdhTE_SbrOpJKmSrQMQf-4" value="OpenCR" style="rounded=0;whiteSpace=wrap;html=1;fillColor=#f8cecc;strokeColor=#b85450;" vertex="1" parent="dNxyNK7c78bLwvsdeMH5-11">
          <mxGeometry x="80" y="160" width="120" height="60" as="geometry" />
        </mxCell>
        <mxCell id="tdhTE_SbrOpJKmSrQMQf-5" value="ODrive" style="rounded=0;whiteSpace=wrap;html=1;fillColor=#dae8fc;strokeColor=#6c8ebf;" vertex="1" parent="dNxyNK7c78bLwvsdeMH5-11">
          <mxGeometry x="300" y="250" width="120" height="60" as="geometry" />
        </mxCell>
        <mxCell id="tdhTE_SbrOpJKmSrQMQf-7" value="BLDC Motor&lt;br&gt;Right Wheel" style="rounded=1;whiteSpace=wrap;html=1;" vertex="1" parent="dNxyNK7c78bLwvsdeMH5-11">
          <mxGeometry x="223" y="350" width="120" height="60" as="geometry" />
        </mxCell>
        <mxCell id="tdhTE_SbrOpJKmSrQMQf-8" value="BLDC Motor&lt;br&gt;Left Wheel" style="rounded=1;whiteSpace=wrap;html=1;" vertex="1" parent="dNxyNK7c78bLwvsdeMH5-11">
          <mxGeometry x="379" y="350" width="120" height="60" as="geometry" />
        </mxCell>
        <mxCell id="tdhTE_SbrOpJKmSrQMQf-9" value="Lidar" style="ellipse;whiteSpace=wrap;html=1;fillColor=#e1d5e7;strokeColor=#9673a6;" vertex="1" parent="dNxyNK7c78bLwvsdeMH5-11">
          <mxGeometry x="170" y="40" width="120" height="80" as="geometry" />
        </mxCell>
        <mxCell id="tdhTE_SbrOpJKmSrQMQf-17" value="Camera" style="ellipse;whiteSpace=wrap;html=1;fillColor=#e1d5e7;strokeColor=#9673a6;" vertex="1" parent="dNxyNK7c78bLwvsdeMH5-11">
          <mxGeometry x="430" y="40" width="120" height="80" as="geometry" />
        </mxCell>
        <mxCell id="tdhTE_SbrOpJKmSrQMQf-24" value="" style="endArrow=classic;html=1;rounded=0;exitX=0.5;exitY=1;exitDx=0;exitDy=0;entryX=0.5;entryY=0;entryDx=0;entryDy=0;" edge="1" parent="dNxyNK7c78bLwvsdeMH5-11" source="tdhTE_SbrOpJKmSrQMQf-5" target="tdhTE_SbrOpJKmSrQMQf-7">
          <mxGeometry width="50" height="50" relative="1" as="geometry">
            <mxPoint x="320" y="250" as="sourcePoint" />
            <mxPoint x="370" y="200" as="targetPoint" />
            <Array as="points">
              <mxPoint x="360" y="330" />
              <mxPoint x="283" y="330" />
            </Array>
          </mxGeometry>
        </mxCell>
        <mxCell id="tdhTE_SbrOpJKmSrQMQf-35" value="Battery&lt;br&gt;24V" style="whiteSpace=wrap;html=1;aspect=fixed;fillColor=#fff2cc;strokeColor=#d6b656;" vertex="1" parent="dNxyNK7c78bLwvsdeMH5-11">
          <mxGeometry x="470" y="240" width="80" height="80" as="geometry" />
        </mxCell>
        <mxCell id="tdhTE_SbrOpJKmSrQMQf-36" value="Motor Drive" style="rounded=0;whiteSpace=wrap;html=1;fillColor=#dae8fc;strokeColor=#6c8ebf;" vertex="1" parent="dNxyNK7c78bLwvsdeMH5-11">
          <mxGeometry x="610" y="250" width="120" height="60" as="geometry" />
        </mxCell>
        <mxCell id="tdhTE_SbrOpJKmSrQMQf-37" value="Step Motor&lt;br&gt;(Belt)" style="rounded=1;whiteSpace=wrap;html=1;" vertex="1" parent="dNxyNK7c78bLwvsdeMH5-11">
          <mxGeometry x="610" y="350" width="120" height="60" as="geometry" />
        </mxCell>
        <mxCell id="tdhTE_SbrOpJKmSrQMQf-41" value="" style="edgeStyle=isometricEdgeStyle;endArrow=none;html=1;elbow=vertical;rounded=0;entryX=0;entryY=0.5;entryDx=0;entryDy=0;exitX=1;exitY=0.5;exitDx=0;exitDy=0;" edge="1" parent="dNxyNK7c78bLwvsdeMH5-11" source="tdhTE_SbrOpJKmSrQMQf-5" target="tdhTE_SbrOpJKmSrQMQf-35">
          <mxGeometry width="50" height="100" relative="1" as="geometry">
            <mxPoint x="370" y="340" as="sourcePoint" />
            <mxPoint x="420" y="240" as="targetPoint" />
          </mxGeometry>
        </mxCell>
        <mxCell id="tdhTE_SbrOpJKmSrQMQf-42" value="" style="edgeStyle=isometricEdgeStyle;endArrow=none;html=1;elbow=vertical;rounded=0;entryX=0;entryY=0.5;entryDx=0;entryDy=0;exitX=1;exitY=0.5;exitDx=0;exitDy=0;" edge="1" parent="dNxyNK7c78bLwvsdeMH5-11" source="tdhTE_SbrOpJKmSrQMQf-35" target="tdhTE_SbrOpJKmSrQMQf-36">
          <mxGeometry width="50" height="100" relative="1" as="geometry">
            <mxPoint x="370" y="340" as="sourcePoint" />
            <mxPoint x="420" y="240" as="targetPoint" />
          </mxGeometry>
        </mxCell>
        <mxCell id="tdhTE_SbrOpJKmSrQMQf-43" value="" style="endArrow=classic;html=1;rounded=0;exitX=0.5;exitY=1;exitDx=0;exitDy=0;entryX=0.5;entryY=0;entryDx=0;entryDy=0;" edge="1" parent="dNxyNK7c78bLwvsdeMH5-11" source="tdhTE_SbrOpJKmSrQMQf-36" target="tdhTE_SbrOpJKmSrQMQf-37">
          <mxGeometry width="50" height="50" relative="1" as="geometry">
            <mxPoint x="370" y="320" as="sourcePoint" />
            <mxPoint x="420" y="270" as="targetPoint" />
          </mxGeometry>
        </mxCell>
        <mxCell id="tdhTE_SbrOpJKmSrQMQf-44" value="" style="endArrow=classic;html=1;rounded=0;exitX=0.5;exitY=1;exitDx=0;exitDy=0;entryX=0.5;entryY=0;entryDx=0;entryDy=0;" edge="1" parent="dNxyNK7c78bLwvsdeMH5-11" source="tdhTE_SbrOpJKmSrQMQf-3" target="tdhTE_SbrOpJKmSrQMQf-36">
          <mxGeometry width="50" height="50" relative="1" as="geometry">
            <mxPoint x="370" y="320" as="sourcePoint" />
            <mxPoint x="420" y="270" as="targetPoint" />
          </mxGeometry>
        </mxCell>
        <mxCell id="tdhTE_SbrOpJKmSrQMQf-49" value="Speaker" style="rounded=1;whiteSpace=wrap;html=1;" vertex="1" parent="dNxyNK7c78bLwvsdeMH5-11">
          <mxGeometry x="610" y="60" width="120" height="60" as="geometry" />
        </mxCell>
        <mxCell id="tdhTE_SbrOpJKmSrQMQf-50" value="" style="endArrow=classic;html=1;rounded=0;exitX=0.5;exitY=0;exitDx=0;exitDy=0;entryX=0.5;entryY=1;entryDx=0;entryDy=0;" edge="1" parent="dNxyNK7c78bLwvsdeMH5-11" source="tdhTE_SbrOpJKmSrQMQf-3" target="tdhTE_SbrOpJKmSrQMQf-49">
          <mxGeometry width="50" height="50" relative="1" as="geometry">
            <mxPoint x="370" y="250" as="sourcePoint" />
            <mxPoint x="420" y="200" as="targetPoint" />
          </mxGeometry>
        </mxCell>
        <mxCell id="tdhTE_SbrOpJKmSrQMQf-51" value="Servo Motor1" style="rounded=1;whiteSpace=wrap;html=1;" vertex="1" parent="dNxyNK7c78bLwvsdeMH5-11">
          <mxGeometry x="780" y="120" width="120" height="60" as="geometry" />
        </mxCell>
        <mxCell id="tdhTE_SbrOpJKmSrQMQf-52" value="Servo Motor2" style="rounded=1;whiteSpace=wrap;html=1;" vertex="1" parent="dNxyNK7c78bLwvsdeMH5-11">
          <mxGeometry x="780" y="200" width="120" height="60" as="geometry" />
        </mxCell>
        <mxCell id="tdhTE_SbrOpJKmSrQMQf-53" value="" style="edgeStyle=elbowEdgeStyle;elbow=horizontal;endArrow=classic;html=1;curved=0;rounded=0;endSize=8;startSize=8;exitX=1;exitY=0.5;exitDx=0;exitDy=0;entryX=0;entryY=0.5;entryDx=0;entryDy=0;" edge="1" parent="dNxyNK7c78bLwvsdeMH5-11" source="tdhTE_SbrOpJKmSrQMQf-3" target="tdhTE_SbrOpJKmSrQMQf-51">
          <mxGeometry width="50" height="50" relative="1" as="geometry">
            <mxPoint x="870" y="260" as="sourcePoint" />
            <mxPoint x="920" y="210" as="targetPoint" />
          </mxGeometry>
        </mxCell>
        <mxCell id="tdhTE_SbrOpJKmSrQMQf-54" value="" style="edgeStyle=elbowEdgeStyle;elbow=horizontal;endArrow=classic;html=1;curved=0;rounded=0;endSize=8;startSize=8;exitX=1;exitY=0.5;exitDx=0;exitDy=0;entryX=0;entryY=0.5;entryDx=0;entryDy=0;" edge="1" parent="dNxyNK7c78bLwvsdeMH5-11" source="tdhTE_SbrOpJKmSrQMQf-3" target="tdhTE_SbrOpJKmSrQMQf-52">
          <mxGeometry width="50" height="50" relative="1" as="geometry">
            <mxPoint x="870" y="260" as="sourcePoint" />
            <mxPoint x="920" y="210" as="targetPoint" />
          </mxGeometry>
        </mxCell>
        <mxCell id="tdhTE_SbrOpJKmSrQMQf-1" value="" style="rounded=0;whiteSpace=wrap;html=1;" vertex="1" parent="1">
          <mxGeometry x="370" y="230" width="120" height="60" as="geometry" />
        </mxCell>
        <mxCell id="tdhTE_SbrOpJKmSrQMQf-2" value="PC" style="rounded=0;whiteSpace=wrap;html=1;fillColor=#f8cecc;strokeColor=#b85450;" vertex="1" parent="1">
          <mxGeometry x="370" y="230" width="120" height="60" as="geometry" />
        </mxCell>
        <mxCell id="tdhTE_SbrOpJKmSrQMQf-25" value="" style="endArrow=classic;html=1;rounded=0;entryX=0.5;entryY=0;entryDx=0;entryDy=0;" edge="1" parent="1" target="tdhTE_SbrOpJKmSrQMQf-8">
          <mxGeometry width="50" height="50" relative="1" as="geometry">
            <mxPoint x="430" y="400" as="sourcePoint" />
            <mxPoint x="440" y="270" as="targetPoint" />
            <Array as="points">
              <mxPoint x="510" y="400" />
            </Array>
          </mxGeometry>
        </mxCell>
        <mxCell id="tdhTE_SbrOpJKmSrQMQf-27" value="" style="endArrow=classic;startArrow=classic;html=1;rounded=0;entryX=0.5;entryY=1;entryDx=0;entryDy=0;exitX=0.5;exitY=0;exitDx=0;exitDy=0;" edge="1" parent="1" source="tdhTE_SbrOpJKmSrQMQf-5" target="tdhTE_SbrOpJKmSrQMQf-2">
          <mxGeometry width="50" height="50" relative="1" as="geometry">
            <mxPoint x="390" y="320" as="sourcePoint" />
            <mxPoint x="440" y="270" as="targetPoint" />
          </mxGeometry>
        </mxCell>
        <mxCell id="tdhTE_SbrOpJKmSrQMQf-28" value="" style="endArrow=classic;html=1;rounded=0;" edge="1" parent="1">
          <mxGeometry width="50" height="50" relative="1" as="geometry">
            <mxPoint x="430" y="400" as="sourcePoint" />
            <mxPoint x="430" y="380" as="targetPoint" />
          </mxGeometry>
        </mxCell>
        <mxCell id="tdhTE_SbrOpJKmSrQMQf-29" value="" style="endArrow=classic;html=1;rounded=0;exitX=0.5;exitY=1;exitDx=0;exitDy=0;entryX=0.5;entryY=0;entryDx=0;entryDy=0;" edge="1" parent="1" source="tdhTE_SbrOpJKmSrQMQf-9" target="tdhTE_SbrOpJKmSrQMQf-2">
          <mxGeometry width="50" height="50" relative="1" as="geometry">
            <mxPoint x="390" y="250" as="sourcePoint" />
            <mxPoint x="440" y="200" as="targetPoint" />
            <Array as="points">
              <mxPoint x="300" y="210" />
              <mxPoint x="430" y="210" />
            </Array>
          </mxGeometry>
        </mxCell>
        <mxCell id="tdhTE_SbrOpJKmSrQMQf-30" value="" style="endArrow=classic;html=1;rounded=0;exitX=0.5;exitY=1;exitDx=0;exitDy=0;entryX=0.5;entryY=0;entryDx=0;entryDy=0;" edge="1" parent="1" source="tdhTE_SbrOpJKmSrQMQf-17" target="tdhTE_SbrOpJKmSrQMQf-2">
          <mxGeometry width="50" height="50" relative="1" as="geometry">
            <mxPoint x="390" y="250" as="sourcePoint" />
            <mxPoint x="440" y="200" as="targetPoint" />
            <Array as="points">
              <mxPoint x="560" y="210" />
              <mxPoint x="430" y="210" />
            </Array>
          </mxGeometry>
        </mxCell>
        <mxCell id="tdhTE_SbrOpJKmSrQMQf-31" value="" style="endArrow=classic;startArrow=classic;html=1;rounded=0;entryX=0;entryY=0.5;entryDx=0;entryDy=0;exitX=1;exitY=0.5;exitDx=0;exitDy=0;" edge="1" parent="1" source="tdhTE_SbrOpJKmSrQMQf-2" target="tdhTE_SbrOpJKmSrQMQf-3">
          <mxGeometry width="50" height="50" relative="1" as="geometry">
            <mxPoint x="510" y="260" as="sourcePoint" />
            <mxPoint x="440" y="200" as="targetPoint" />
          </mxGeometry>
        </mxCell>
        <mxCell id="tdhTE_SbrOpJKmSrQMQf-32" value="" style="endArrow=classic;startArrow=classic;html=1;rounded=0;exitX=1;exitY=0.5;exitDx=0;exitDy=0;entryX=0;entryY=0.5;entryDx=0;entryDy=0;" edge="1" parent="1" source="tdhTE_SbrOpJKmSrQMQf-4" target="tdhTE_SbrOpJKmSrQMQf-2">
          <mxGeometry width="50" height="50" relative="1" as="geometry">
            <mxPoint x="390" y="390" as="sourcePoint" />
            <mxPoint x="440" y="340" as="targetPoint" />
          </mxGeometry>
        </mxCell>
      </root>
    </mxGraphModel>
  </diagram>
</mxfile>
